<svg width="80px" height="47px" viewBox="0 0 80 47" version="1.1" xmlns="http://www.w3.org/2000/svg" xmlns:xlink="http://www.w3.org/1999/xlink">
    <g id="Landing" stroke="none" stroke-width="1" fill="none" fill-rule="evenodd">
        <g id="uspehisporta-landing-desktop" transform="translate(-325.000000, -29.000000)" fill-rule="nonzero">
            <g id="Logotype" transform="translate(325.528000, 29.296000)">
                <g id="УСПЕХИ" fill="#1E293B">
                    <path d="M0.744,23.52 L0.744,20.688 C1.432,20.704 2.032,20.672 2.544,20.592 C3.056,20.512 3.472,20.36 3.792,20.136 C4.112,19.912 4.324,19.604 4.428,19.212 C4.532,18.82 4.512,18.328 4.368,17.736 L0,0.264 L3.984,0.264 L5.664,8.256 L6.456,13.464 L7.032,8.232 L8.448,0.264 L12.48,0.264 L8.448,18.384 C8.256,19.264 8.032,20.008 7.776,20.616 C7.52,21.224 7.204,21.724 6.828,22.116 C6.452,22.508 5.992,22.808 5.448,23.016 C4.904,23.224 4.244,23.364 3.468,23.436 C2.692,23.508 1.784,23.536 0.744,23.52 Z" id="Path"></path>
                    <path d="M19.776,19.992 C18.304,19.992 17.14,19.724 16.284,19.188 C15.428,18.652 14.824,17.9 14.472,16.932 C14.12,15.964 13.944,14.824 13.944,13.512 L13.944,6.504 C13.944,5.16 14.12,4.004 14.472,3.036 C14.824,2.068 15.428,1.32 16.284,0.792 C17.14,0.264 18.304,0 19.776,0 C21.216,0 22.34,0.236 23.148,0.708 C23.956,1.18 24.528,1.84 24.864,2.688 C25.2,3.536 25.368,4.512 25.368,5.616 L25.368,7.296 L21.168,7.296 L21.168,5.352 C21.168,4.968 21.148,4.6 21.108,4.248 C21.068,3.896 20.952,3.604 20.76,3.372 C20.568,3.14 20.24,3.024 19.776,3.024 C19.328,3.024 18.996,3.144 18.78,3.384 C18.564,3.624 18.428,3.924 18.372,4.284 C18.316,4.644 18.288,5.024 18.288,5.424 L18.288,14.568 C18.288,15 18.324,15.396 18.396,15.756 C18.468,16.116 18.612,16.404 18.828,16.62 C19.044,16.836 19.36,16.944 19.776,16.944 C20.224,16.944 20.544,16.828 20.736,16.596 C20.928,16.364 21.048,16.064 21.096,15.696 C21.144,15.328 21.168,14.952 21.168,14.568 L21.168,12.528 L25.368,12.528 L25.368,14.208 C25.368,15.312 25.204,16.3 24.876,17.172 C24.548,18.044 23.98,18.732 23.172,19.236 C22.364,19.74 21.232,19.992 19.776,19.992 Z" id="Path"></path>
                    <polygon id="Path" points="27.72 19.704 27.72 0.264 39.36 0.264 39.36 19.704 35.136 19.704 35.136 3.336 31.944 3.336 31.944 19.704"></polygon>
                    <polygon id="Path" points="42.24 19.704 42.24 0.264 50.976 0.264 50.976 3.192 46.536 3.192 46.536 8.016 49.92 8.016 49.92 10.992 46.536 10.992 46.536 16.8 51.024 16.8 51.024 19.704"></polygon>
                    <polygon id="Path" points="51.696 19.704 55.464 9.24 51.864 0.264 55.92 0.264 58.056 5.52 59.784 0.264 63.36 0.264 59.952 10.368 63.744 19.704 59.712 19.704 57.336 13.896 55.248 19.704"></polygon>
                    <polygon id="Path" points="65.4 19.704 65.4 0.264 68.784 0.264 68.784 11.4 73.752 0.264 76.536 0.264 76.536 19.704 73.08 19.704 73.08 8.376 68.016 19.704"></polygon>
                </g>
                <g id="СПОРТА" transform="translate(0.648000, 26.000000)" fill="#1D4ED8">
                    <path d="M5.832,19.992 C4.36,19.992 3.196,19.724 2.34,19.188 C1.484,18.652 0.88,17.9 0.528,16.932 C0.176,15.964 0,14.824 0,13.512 L0,6.504 C0,5.16 0.176,4.004 0.528,3.036 C0.88,2.068 1.484,1.32 2.34,0.792 C3.196,0.264 4.36,0 5.832,0 C7.272,0 8.396,0.236 9.204,0.708 C10.012,1.18 10.584,1.84 10.92,2.688 C11.256,3.536 11.424,4.512 11.424,5.616 L11.424,7.296 L7.224,7.296 L7.224,5.352 C7.224,4.968 7.204,4.6 7.164,4.248 C7.124,3.896 7.008,3.604 6.816,3.372 C6.624,3.14 6.296,3.024 5.832,3.024 C5.384,3.024 5.052,3.144 4.836,3.384 C4.62,3.624 4.484,3.924 4.428,4.284 C4.372,4.644 4.344,5.024 4.344,5.424 L4.344,14.568 C4.344,15 4.38,15.396 4.452,15.756 C4.524,16.116 4.668,16.404 4.884,16.62 C5.1,16.836 5.416,16.944 5.832,16.944 C6.28,16.944 6.6,16.828 6.792,16.596 C6.984,16.364 7.104,16.064 7.152,15.696 C7.2,15.328 7.224,14.952 7.224,14.568 L7.224,12.528 L11.424,12.528 L11.424,14.208 C11.424,15.312 11.26,16.3 10.932,17.172 C10.604,18.044 10.036,18.732 9.228,19.236 C8.42,19.74 7.288,19.992 5.832,19.992 Z" id="Path"></path>
                    <polygon id="Path" points="13.776 19.704 13.776 0.264 25.416 0.264 25.416 19.704 21.192 19.704 21.192 3.336 18 3.336 18 19.704"></polygon>
                    <path d="M33.864,19.992 C32.408,19.992 31.256,19.736 30.408,19.224 C29.56,18.712 28.952,17.976 28.584,17.016 C28.216,16.056 28.032,14.912 28.032,13.584 L28.032,6.36 C28.032,5.016 28.216,3.872 28.584,2.928 C28.952,1.984 29.56,1.26 30.408,0.756 C31.256,0.252 32.408,0 33.864,0 C35.336,0 36.5,0.252 37.356,0.756 C38.212,1.26 38.824,1.984 39.192,2.928 C39.56,3.872 39.744,5.016 39.744,6.36 L39.744,13.584 C39.744,14.912 39.56,16.056 39.192,17.016 C38.824,17.976 38.212,18.712 37.356,19.224 C36.5,19.736 35.336,19.992 33.864,19.992 Z M33.864,16.944 C34.312,16.944 34.64,16.832 34.848,16.608 C35.056,16.384 35.192,16.096 35.256,15.744 C35.32,15.392 35.352,15.032 35.352,14.664 L35.352,5.304 C35.352,4.92 35.32,4.556 35.256,4.212 C35.192,3.868 35.056,3.584 34.848,3.36 C34.64,3.136 34.312,3.024 33.864,3.024 C33.448,3.024 33.136,3.136 32.928,3.36 C32.72,3.584 32.584,3.868 32.52,4.212 C32.456,4.556 32.424,4.92 32.424,5.304 L32.424,14.664 C32.424,15.032 32.452,15.392 32.508,15.744 C32.564,16.096 32.692,16.384 32.892,16.608 C33.092,16.832 33.416,16.944 33.864,16.944 Z" id="Shape"></path>
                    <path d="M42.36,19.704 L42.36,0.264 L48.888,0.264 C50.056,0.264 51.016,0.484 51.768,0.924 C52.52,1.364 53.08,2.004 53.448,2.844 C53.816,3.684 54,4.704 54,5.904 C54,7.408 53.752,8.556 53.256,9.348 C52.76,10.14 52.088,10.688 51.24,10.992 C50.392,11.296 49.44,11.448 48.384,11.448 L46.656,11.448 L46.656,19.704 L42.36,19.704 Z M46.656,8.448 L48.096,8.448 C48.624,8.448 49.024,8.352 49.296,8.16 C49.568,7.968 49.748,7.68 49.836,7.296 C49.924,6.912 49.968,6.424 49.968,5.832 C49.968,5.336 49.932,4.9 49.86,4.524 C49.788,4.148 49.616,3.848 49.344,3.624 C49.072,3.4 48.648,3.288 48.072,3.288 L46.656,3.288 L46.656,8.448 Z" id="Shape"></path>
                    <polygon id="Path" points="57.816 19.704 57.816 3.456 54.888 3.456 54.888 0.264 65.04 0.264 65.04 3.456 62.136 3.456 62.136 19.704"></polygon>
                    <path d="M65.808,19.704 L69.48,0.264 L74.376,0.264 L78,19.704 L74.04,19.704 L73.392,15.6 L70.536,15.6 L69.864,19.704 L65.808,19.704 Z M70.92,13.032 L72.984,13.032 L71.952,5.448 L70.92,13.032 Z" id="Shape"></path>
                </g>
            </g>
        </g>
    </g>
</svg>
