<?xml version="1.0" standalone="no"?>
<!DOCTYPE svg PUBLIC "-//W3C//DTD SVG 20010904//EN"
 "http://www.w3.org/TR/2001/REC-SVG-20010904/DTD/svg10.dtd">
<svg version="1.0" xmlns="http://www.w3.org/2000/svg"
 width="260.000000pt" height="260.000000pt" viewBox="0 0 260.000000 260.000000"
 preserveAspectRatio="xMidYMid meet">
<metadata>
Created by potrace 1.14, written by Peter Selinger 2001-2017
</metadata>
<g transform="translate(0.000000,260.000000) scale(0.100000,-0.100000)"
fill="#000000" stroke="none">
<path d="M1107 2584 c-546 -85 -967 -486 -1084 -1034 -25 -119 -25 -381 0
-500 56 -259 164 -465 344 -651 190 -197 410 -317 683 -376 118 -25 381 -25
500 0 259 55 465 165 651 344 196 190 317 409 376 683 24 114 24 391 0 500
-44 195 -118 365 -224 512 -73 101 -227 250 -329 317 -270 179 -606 254 -917
205z m355 -105 c10 -11 20 -37 23 -57 8 -54 28 -87 51 -85 10 1 51 13 89 28
97 38 192 40 229 6 20 -19 26 -34 26 -68 0 -48 -11 -72 -55 -121 -33 -38 -67
-54 -90 -46 -25 10 -17 40 21 74 29 25 37 40 38 68 l1 37 -48 3 c-55 4 -123
-24 -224 -90 -35 -22 -69 -38 -76 -35 -10 4 -16 32 -19 96 -3 50 -11 98 -18
106 -32 38 -87 -1 -165 -119 -27 -41 -55 -76 -60 -76 -6 0 -29 20 -52 45 -86
91 -262 146 -308 95 -17 -18 -17 -21 2 -52 10 -18 35 -43 54 -56 46 -31 55
-50 35 -70 -15 -16 -20 -15 -63 8 -54 29 -111 102 -120 153 -4 28 0 40 25 68
26 30 36 33 94 37 75 5 151 -14 240 -59 31 -16 67 -29 79 -29 13 0 43 24 81
64 93 101 166 127 210 75z m98 -374 c117 -23 198 -64 280 -141 113 -107 179
-265 167 -399 -7 -73 -15 -95 -33 -95 -12 0 -13 14 -8 79 12 141 -37 272 -142
377 -118 118 -227 151 -534 161 -180 5 -202 4 -284 -17 -54 -13 -92 -18 -98
-12 -13 13 8 26 67 45 79 25 88 26 300 22 136 -2 227 -8 285 -20z m-723 -36
c41 -35 -14 -208 -80 -248 -31 -20 -32 -4 -2 31 40 47 75 127 75 170 0 33 -4
39 -27 44 -59 15 -226 -104 -266 -189 -24 -51 -21 -82 13 -120 45 -52 80 -63
132 -42 25 10 76 18 119 20 42 1 82 5 88 9 16 10 48 -2 55 -21 10 -24 -17 -57
-63 -78 -43 -19 -51 -35 -26 -55 12 -10 21 -8 50 10 47 29 66 58 58 89 -6 23
-5 25 10 12 10 -7 17 -20 17 -27 0 -26 15 -14 43 32 42 70 45 45 3 -30 -20
-35 -36 -69 -36 -75 0 -23 26 -9 67 37 23 26 42 42 43 36 0 -6 -19 -32 -42
-58 -31 -36 -46 -46 -62 -42 -14 4 -26 -1 -38 -17 -26 -34 -33 -12 -8 28 30
48 19 55 -26 16 -27 -24 -44 -31 -67 -29 -46 4 -59 37 -41 97 7 25 14 47 14
49 0 1 -15 2 -33 2 -39 0 -137 -27 -137 -38 0 -4 18 -18 39 -31 22 -13 45 -34
51 -47 50 -93 -114 -226 -223 -180 -76 31 -68 105 21 198 30 32 53 59 51 61
-81 56 -109 93 -109 144 1 86 125 217 240 254 30 9 78 3 97 -12z m148 -170 c0
-59 -3 -74 -15 -74 -11 0 -16 15 -18 64 -3 71 2 95 21 88 8 -2 12 -27 12 -78z
m329 65 c11 -30 6 -121 -7 -133 -22 -17 -27 -3 -27 76 0 56 3 73 14 73 8 0 17
-7 20 -16z m321 -64 c0 -60 -3 -75 -15 -75 -12 0 -16 17 -18 78 -3 71 -1 78
15 75 15 -3 18 -14 18 -78z m-177 -208 c3 -67 1 -72 -18 -72 -18 0 -20 6 -20
68 0 38 3 72 7 76 18 17 28 -7 31 -72z m352 2 c0 -66 -2 -75 -17 -72 -14 3
-19 15 -21 62 -4 68 1 86 23 86 12 0 15 -14 15 -76z m-1058 -365 c22 -12 12
-43 -11 -34 -46 18 -79 17 -100 -4 -30 -30 -14 -56 52 -85 56 -25 71 -38 80
-74 20 -83 -86 -142 -174 -96 -32 16 -34 41 -3 36 91 -14 101 -14 117 3 18 17
22 42 9 61 -4 6 -34 25 -67 41 -42 21 -63 37 -69 56 -29 82 77 143 166 96z
m283 -4 c0 -16 -8 -21 -42 -23 l-43 -3 0 -140 c0 -132 -1 -139 -20 -139 -19 0
-20 7 -20 140 l0 140 -39 0 c-42 0 -57 11 -47 36 5 12 25 14 108 12 95 -3 103
-4 103 -23z m271 6 c57 -26 87 -72 92 -140 4 -62 -17 -105 -71 -145 -42 -31
-140 -30 -186 3 -77 55 -90 167 -28 238 56 63 119 78 193 44z m328 -6 c37 -25
51 -75 32 -117 -9 -18 -21 -40 -27 -49 -10 -13 -5 -27 25 -73 20 -31 36 -59
36 -61 0 -3 -11 -5 -24 -5 -18 0 -32 14 -60 60 -32 51 -41 60 -67 60 -29 0
-29 0 -29 -60 0 -53 -2 -60 -20 -60 -19 0 -20 7 -20 166 l0 167 65 -6 c35 -3
76 -13 89 -22z m341 0 c0 -18 -8 -20 -82 -23 l-83 -3 0 -44 0 -44 73 -3 c66
-3 72 -5 75 -25 3 -22 0 -23 -73 -23 l-76 0 3 -47 3 -48 88 -3 c77 -2 88 -5
85 -20 -3 -15 -19 -17 -111 -20 l-107 -3 0 159 c0 87 3 162 7 166 4 4 50 5
103 4 87 -3 95 -5 95 -23z m-1060 -434 c117 -82 262 -93 396 -28 100 48 171
67 245 67 102 0 194 -45 194 -94 0 -51 -72 -124 -262 -264 -62 -46 -74 -73
-58 -133 19 -68 -14 -110 -75 -95 -26 7 -47 60 -38 95 6 23 -16 39 -28 20 -15
-25 -10 -82 16 -154 34 -98 33 -155 -4 -197 -25 -28 -36 -33 -74 -33 -56 0
-92 19 -112 60 -22 48 -19 91 15 193 33 102 37 140 16 180 -18 36 -104 115
-189 175 -70 49 -119 112 -139 179 -23 77 12 88 97 29z"/>
<path d="M876 1705 c-25 -23 -34 -45 -18 -45 18 0 72 41 72 55 0 22 -24 18
-54 -10z"/>
<path d="M606 1638 c-49 -40 -96 -114 -96 -149 0 -31 31 -59 65 -59 33 0 120
46 143 75 42 53 26 101 -48 148 -25 16 -27 15 -64 -15z"/>
<path d="M1194 1301 c-11 -5 -33 -23 -47 -41 -31 -36 -36 -94 -12 -139 15 -31
69 -61 108 -61 38 0 90 41 106 84 28 72 -21 151 -99 161 -19 3 -44 1 -56 -4z"/>
<path d="M1520 1239 l0 -62 42 6 c95 13 90 117 -5 117 l-37 0 0 -61z"/>
<path d="M1510 893 c-47 -8 -95 -25 -185 -66 -84 -38 -96 -41 -180 -41 -104
-1 -169 18 -246 70 -46 31 -50 32 -44 11 18 -59 59 -108 138 -166 96 -70 162
-132 184 -175 23 -44 19 -120 -11 -208 -35 -100 -35 -160 0 -187 32 -25 71
-27 103 -5 22 16 23 22 19 83 -3 36 -13 82 -23 101 -27 49 -27 150 -1 179 24
27 50 27 77 0 15 -15 19 -28 14 -46 -9 -36 3 -63 27 -63 19 0 20 4 13 38 -19
92 -5 131 68 182 70 50 159 123 205 167 53 51 54 80 2 104 -37 18 -119 29
-160 22z"/>
</g>
</svg>
