<?xml version="1.0" standalone="no"?>
<!DOCTYPE svg PUBLIC "-//W3C//DTD SVG 20010904//EN"
 "http://www.w3.org/TR/2001/REC-SVG-20010904/DTD/svg10.dtd">
<svg version="1.0" xmlns="http://www.w3.org/2000/svg"
 width="240.000000pt" height="240.000000pt" viewBox="0 0 240.000000 240.000000"
 preserveAspectRatio="xMidYMid meet">
<metadata>
Created by potrace 1.14, written by Peter Selinger 2001-2017
</metadata>
<g transform="translate(0.000000,240.000000) scale(0.100000,-0.100000)"
fill="#000000" stroke="none">
<path d="M1570 1903 c-111 -19 -204 -82 -244 -165 -51 -107 -56 -152 -53 -538
2 -195 6 -366 10 -379 37 -136 91 -210 182 -251 146 -64 372 -48 479 34 82 62
122 172 125 341 l2 101 -147 -1 -148 0 -2 -113 c-1 -62 -7 -125 -14 -141 -27
-65 -127 -66 -164 -1 -20 33 -21 52 -21 405 -1 203 2 390 7 415 10 56 45 90
93 90 77 0 96 -32 99 -174 1 -56 5 -106 8 -112 3 -5 68 -9 145 -8 l138 1 2
100 c3 228 -74 346 -252 388 -50 12 -197 17 -245 8z"/>
<path d="M334 1873 c6 -22 44 -167 90 -343 19 -74 62 -241 96 -370 34 -129 77
-296 97 -370 19 -74 35 -150 35 -168 0 -94 -64 -140 -199 -143 -73 -2 -71 1
-69 -114 l1 -80 87 -1 c130 -1 205 12 278 49 75 37 117 86 150 174 17 44 119
458 146 588 2 11 6 29 8 40 2 11 20 88 39 170 59 247 98 416 113 485 8 36 17
73 20 83 5 16 -6 17 -140 17 -129 0 -145 -2 -150 -17 -5 -16 -23 -118 -40
-223 -4 -19 -10 -55 -16 -80 -13 -61 -41 -218 -46 -255 -7 -57 -13 -110 -20
-180 -5 -38 -9 -73 -10 -77 -1 -5 -2 -23 -4 -40 -1 -25 -5 -18 -15 32 -7 36
-16 85 -19 110 -3 25 -8 55 -10 66 -2 12 -7 39 -10 60 -10 64 -18 104 -76 364
-22 102 -43 197 -47 213 l-5 27 -145 0 c-133 0 -144 -1 -139 -17z"/>
</g>
</svg>
